# xmcd
#
# Track frame offsets:
# 150
# 12083
# 26034
# 43091
# 61011
# 75642
# 89879
# 102496
# 115534
# 130547
# 143596
#
# Disc length: 2107 seconds
#
#
# Revision: 0
# Processed by: cddbd v1.5.1PL0 Copyright (c) Steve Scherf et al.
# Submitted via: FreeRIP 2.931 
#
DISCID=8508390b
DTITLE=Dendee - I've got a feeling in my water
DYEAR=2003
DGENRE=Blues
TTITLE0=I've got a feeling in my water, my knickers in a twist
TTITLE1=I want a cup of tea
TTITLE2=I've got the comb over blues
TTITLE3=Her butt's too big
TTITLE4=I must forget my blues and get back in the groove
TTITLE5=Get up off your lazy ass
TTITLE6=My baby's a scrubber
TTITLE7=Maybe
TTITLE8=I'm not gay, I just act that way
TTITLE9=I'm out in the rain
TTITLE10=I've got my blues on
EXTD=
EXTT0=
EXTT1=
EXTT2=
EXTT3=
EXTT4=
EXTT5=
EXTT6=
EXTT7=
EXTT8=
EXTT9=
EXTT10=
PLAYORDER=
